<mxfile host="app.diagrams.net" modified="2023-10-06T06:36:51.367Z" agent="Mozilla/5.0 (X11; Linux x86_64) AppleWebKit/537.36 (KHTML, like Gecko) Chrome/117.0.0.0 Safari/537.36" etag="uox1ugPVUsoz2lxmQLcE" version="22.0.3" type="github">
  <diagram name="Страница — 1" id="HEkqbumlcw84zHXEJl8H">
    <mxGraphModel dx="2849" dy="1501" grid="0" gridSize="10" guides="1" tooltips="1" connect="1" arrows="1" fold="1" page="0" pageScale="1" pageWidth="827" pageHeight="1169" math="0" shadow="0">
      <root>
        <mxCell id="0" />
        <mxCell id="1" parent="0" />
        <mxCell id="XJhYYw2cQEGLfJjtBbyS-1" value="Прийом співробітника на роботу" style="swimlane;horizontal=0;whiteSpace=wrap;html=1;" parent="1" vertex="1">
          <mxGeometry x="-650" y="-185" width="2005" height="912" as="geometry" />
        </mxCell>
        <mxCell id="XJhYYw2cQEGLfJjtBbyS-4" value="Кандидат на посаду" style="swimlane;horizontal=0;whiteSpace=wrap;html=1;" parent="1" vertex="1">
          <mxGeometry x="-626" y="254" width="1980" height="473" as="geometry" />
        </mxCell>
        <mxCell id="1G5EOY4C8jy5DTyf7jeD-6" style="edgeStyle=orthogonalEdgeStyle;rounded=0;orthogonalLoop=1;jettySize=auto;html=1;exitX=1;exitY=0.5;exitDx=0;exitDy=0;exitPerimeter=0;entryX=0;entryY=0.5;entryDx=0;entryDy=0;" parent="XJhYYw2cQEGLfJjtBbyS-4" source="XJhYYw2cQEGLfJjtBbyS-43" target="1G5EOY4C8jy5DTyf7jeD-4" edge="1">
          <mxGeometry relative="1" as="geometry" />
        </mxCell>
        <mxCell id="XJhYYw2cQEGLfJjtBbyS-43" value="" style="points=[[0.145,0.145,0],[0.5,0,0],[0.855,0.145,0],[1,0.5,0],[0.855,0.855,0],[0.5,1,0],[0.145,0.855,0],[0,0.5,0]];shape=mxgraph.bpmn.event;html=1;verticalLabelPosition=bottom;labelBackgroundColor=#ffffff;verticalAlign=top;align=center;perimeter=ellipsePerimeter;outlineConnect=0;aspect=fixed;outline=standard;symbol=general;" parent="XJhYYw2cQEGLfJjtBbyS-4" vertex="1">
          <mxGeometry x="41" y="118.50000000000003" width="50" height="50" as="geometry" />
        </mxCell>
        <mxCell id="i3d9WlMV_aPhnrJHNZd--3" style="edgeStyle=orthogonalEdgeStyle;rounded=0;orthogonalLoop=1;jettySize=auto;html=1;exitX=1;exitY=0.5;exitDx=0;exitDy=0;entryX=0;entryY=0.5;entryDx=0;entryDy=0;" edge="1" parent="XJhYYw2cQEGLfJjtBbyS-4" source="1G5EOY4C8jy5DTyf7jeD-4" target="1G5EOY4C8jy5DTyf7jeD-5">
          <mxGeometry relative="1" as="geometry" />
        </mxCell>
        <mxCell id="1G5EOY4C8jy5DTyf7jeD-4" value="Створити резюме" style="rounded=1;whiteSpace=wrap;html=1;" parent="XJhYYw2cQEGLfJjtBbyS-4" vertex="1">
          <mxGeometry x="118" y="114.00000000000003" width="120" height="60" as="geometry" />
        </mxCell>
        <mxCell id="1G5EOY4C8jy5DTyf7jeD-5" value="Надіслати резюме" style="rounded=1;whiteSpace=wrap;html=1;" parent="XJhYYw2cQEGLfJjtBbyS-4" vertex="1">
          <mxGeometry x="290" y="114.00000000000003" width="120" height="60" as="geometry" />
        </mxCell>
        <mxCell id="1G5EOY4C8jy5DTyf7jeD-29" value="Виконати тестове завдання" style="rounded=1;whiteSpace=wrap;html=1;" parent="XJhYYw2cQEGLfJjtBbyS-4" vertex="1">
          <mxGeometry x="739" y="154.09" width="120" height="60" as="geometry" />
        </mxCell>
        <mxCell id="i3d9WlMV_aPhnrJHNZd--22" style="edgeStyle=orthogonalEdgeStyle;rounded=0;orthogonalLoop=1;jettySize=auto;html=1;exitX=1;exitY=0.5;exitDx=0;exitDy=0;exitPerimeter=0;entryX=0;entryY=0.5;entryDx=0;entryDy=0;" edge="1" parent="XJhYYw2cQEGLfJjtBbyS-4" source="1G5EOY4C8jy5DTyf7jeD-45" target="1G5EOY4C8jy5DTyf7jeD-29">
          <mxGeometry relative="1" as="geometry" />
        </mxCell>
        <mxCell id="1G5EOY4C8jy5DTyf7jeD-45" value="" style="points=[[0.145,0.145,0],[0.5,0,0],[0.855,0.145,0],[1,0.5,0],[0.855,0.855,0],[0.5,1,0],[0.145,0.855,0],[0,0.5,0]];shape=mxgraph.bpmn.event;html=1;verticalLabelPosition=bottom;labelBackgroundColor=#ffffff;verticalAlign=top;align=center;perimeter=ellipsePerimeter;outlineConnect=0;aspect=fixed;outline=catching;symbol=message;" parent="XJhYYw2cQEGLfJjtBbyS-4" vertex="1">
          <mxGeometry x="611" y="159.09000000000003" width="50" height="50" as="geometry" />
        </mxCell>
        <mxCell id="1G5EOY4C8jy5DTyf7jeD-55" value="" style="points=[[0.145,0.145,0],[0.5,0,0],[0.855,0.145,0],[1,0.5,0],[0.855,0.855,0],[0.5,1,0],[0.145,0.855,0],[0,0.5,0]];shape=mxgraph.bpmn.event;html=1;verticalLabelPosition=bottom;labelBackgroundColor=#ffffff;verticalAlign=top;align=center;perimeter=ellipsePerimeter;outlineConnect=0;aspect=fixed;outline=catching;symbol=message;" parent="XJhYYw2cQEGLfJjtBbyS-4" vertex="1">
          <mxGeometry x="1204.5" y="180" width="50" height="50" as="geometry" />
        </mxCell>
        <mxCell id="1G5EOY4C8jy5DTyf7jeD-66" style="edgeStyle=orthogonalEdgeStyle;rounded=0;orthogonalLoop=1;jettySize=auto;html=1;exitX=0.5;exitY=0;exitDx=0;exitDy=0;exitPerimeter=0;entryX=0;entryY=0.5;entryDx=0;entryDy=0;" parent="XJhYYw2cQEGLfJjtBbyS-4" source="1G5EOY4C8jy5DTyf7jeD-59" target="1G5EOY4C8jy5DTyf7jeD-65" edge="1">
          <mxGeometry relative="1" as="geometry" />
        </mxCell>
        <mxCell id="1G5EOY4C8jy5DTyf7jeD-103" value="&lt;font style=&quot;font-size: 14px;&quot;&gt;Так&lt;/font&gt;" style="edgeLabel;html=1;align=center;verticalAlign=middle;resizable=0;points=[];" parent="1G5EOY4C8jy5DTyf7jeD-66" vertex="1" connectable="0">
          <mxGeometry x="-0.1323" y="-1" relative="1" as="geometry">
            <mxPoint x="-4" y="43" as="offset" />
          </mxGeometry>
        </mxCell>
        <mxCell id="1G5EOY4C8jy5DTyf7jeD-59" value="" style="points=[[0.25,0.25,0],[0.5,0,0],[0.75,0.25,0],[1,0.5,0],[0.75,0.75,0],[0.5,1,0],[0.25,0.75,0],[0,0.5,0]];shape=mxgraph.bpmn.gateway2;html=1;verticalLabelPosition=bottom;labelBackgroundColor=#ffffff;verticalAlign=top;align=center;perimeter=rhombusPerimeter;outlineConnect=0;outline=none;symbol=none;gwType=exclusive;" parent="XJhYYw2cQEGLfJjtBbyS-4" vertex="1">
          <mxGeometry x="1404" y="180" width="50" height="50" as="geometry" />
        </mxCell>
        <mxCell id="1G5EOY4C8jy5DTyf7jeD-62" style="edgeStyle=orthogonalEdgeStyle;rounded=0;orthogonalLoop=1;jettySize=auto;html=1;exitX=1;exitY=0.5;exitDx=0;exitDy=0;exitPerimeter=0;entryX=0;entryY=0.5;entryDx=0;entryDy=0;entryPerimeter=0;" parent="XJhYYw2cQEGLfJjtBbyS-4" source="1G5EOY4C8jy5DTyf7jeD-55" target="1G5EOY4C8jy5DTyf7jeD-59" edge="1">
          <mxGeometry relative="1" as="geometry" />
        </mxCell>
        <mxCell id="1G5EOY4C8jy5DTyf7jeD-63" value="" style="points=[[0.145,0.145,0],[0.5,0,0],[0.855,0.145,0],[1,0.5,0],[0.855,0.855,0],[0.5,1,0],[0.145,0.855,0],[0,0.5,0]];shape=mxgraph.bpmn.event;html=1;verticalLabelPosition=bottom;labelBackgroundColor=#ffffff;verticalAlign=top;align=center;perimeter=ellipsePerimeter;outlineConnect=0;aspect=fixed;outline=end;symbol=terminate2;" parent="XJhYYw2cQEGLfJjtBbyS-4" vertex="1">
          <mxGeometry x="1508" y="256" width="50" height="50" as="geometry" />
        </mxCell>
        <mxCell id="1G5EOY4C8jy5DTyf7jeD-64" style="edgeStyle=orthogonalEdgeStyle;rounded=0;orthogonalLoop=1;jettySize=auto;html=1;exitX=0.5;exitY=1;exitDx=0;exitDy=0;exitPerimeter=0;entryX=0;entryY=0.5;entryDx=0;entryDy=0;entryPerimeter=0;" parent="XJhYYw2cQEGLfJjtBbyS-4" source="1G5EOY4C8jy5DTyf7jeD-59" target="1G5EOY4C8jy5DTyf7jeD-63" edge="1">
          <mxGeometry relative="1" as="geometry" />
        </mxCell>
        <mxCell id="1G5EOY4C8jy5DTyf7jeD-104" value="&lt;font style=&quot;font-size: 14px;&quot;&gt;Ні&lt;/font&gt;" style="edgeLabel;html=1;align=center;verticalAlign=middle;resizable=0;points=[];" parent="1G5EOY4C8jy5DTyf7jeD-64" vertex="1" connectable="0">
          <mxGeometry x="-0.1806" y="-3" relative="1" as="geometry">
            <mxPoint x="-4" y="-26" as="offset" />
          </mxGeometry>
        </mxCell>
        <mxCell id="1G5EOY4C8jy5DTyf7jeD-65" value="Надіслати документи" style="rounded=1;whiteSpace=wrap;html=1;" parent="XJhYYw2cQEGLfJjtBbyS-4" vertex="1">
          <mxGeometry x="1490.5" y="60.09" width="120" height="60" as="geometry" />
        </mxCell>
        <mxCell id="1G5EOY4C8jy5DTyf7jeD-79" value="" style="shape=mxgraph.bpmn.data;labelPosition=center;verticalLabelPosition=bottom;align=center;verticalAlign=top;size=15;html=1;" parent="XJhYYw2cQEGLfJjtBbyS-4" vertex="1">
          <mxGeometry x="559.5" y="32.09" width="67" height="89.91" as="geometry" />
        </mxCell>
        <mxCell id="1G5EOY4C8jy5DTyf7jeD-80" value="Матеріали&lt;br&gt;завдання" style="text;html=1;align=center;verticalAlign=middle;resizable=0;points=[];autosize=1;strokeColor=none;fillColor=none;" parent="XJhYYw2cQEGLfJjtBbyS-4" vertex="1">
          <mxGeometry x="555" y="60.09" width="76" height="41" as="geometry" />
        </mxCell>
        <mxCell id="1G5EOY4C8jy5DTyf7jeD-93" value="Отримати відповідь" style="text;html=1;align=center;verticalAlign=middle;resizable=0;points=[];autosize=1;strokeColor=none;fillColor=none;" parent="XJhYYw2cQEGLfJjtBbyS-4" vertex="1">
          <mxGeometry x="572" y="214.09000000000003" width="128" height="26" as="geometry" />
        </mxCell>
        <mxCell id="1G5EOY4C8jy5DTyf7jeD-94" value="Надійшла пропозиція" style="text;html=1;align=center;verticalAlign=middle;resizable=0;points=[];autosize=1;strokeColor=none;fillColor=none;" parent="XJhYYw2cQEGLfJjtBbyS-4" vertex="1">
          <mxGeometry x="1161" y="230.00000000000003" width="137" height="26" as="geometry" />
        </mxCell>
        <mxCell id="1G5EOY4C8jy5DTyf7jeD-102" value="Умови праці підходять?" style="text;html=1;align=center;verticalAlign=middle;resizable=0;points=[];autosize=1;strokeColor=none;fillColor=none;" parent="XJhYYw2cQEGLfJjtBbyS-4" vertex="1">
          <mxGeometry x="1454" y="192" width="150" height="26" as="geometry" />
        </mxCell>
        <mxCell id="i3d9WlMV_aPhnrJHNZd--19" style="edgeStyle=orthogonalEdgeStyle;rounded=0;orthogonalLoop=1;jettySize=auto;html=1;exitX=0.5;exitY=1;exitDx=0;exitDy=0;exitPerimeter=0;entryX=0.145;entryY=0.145;entryDx=0;entryDy=0;entryPerimeter=0;dashed=1;" edge="1" parent="XJhYYw2cQEGLfJjtBbyS-4" source="1G5EOY4C8jy5DTyf7jeD-79" target="1G5EOY4C8jy5DTyf7jeD-45">
          <mxGeometry relative="1" as="geometry" />
        </mxCell>
        <mxCell id="i3d9WlMV_aPhnrJHNZd--34" value="" style="points=[[0.25,0.25,0],[0.5,0,0],[0.75,0.25,0],[1,0.5,0],[0.75,0.75,0],[0.5,1,0],[0.25,0.75,0],[0,0.5,0]];shape=mxgraph.bpmn.gateway2;html=1;verticalLabelPosition=bottom;labelBackgroundColor=#ffffff;verticalAlign=top;align=center;perimeter=rhombusPerimeter;outlineConnect=0;outline=standard;symbol=multiple;" vertex="1" parent="XJhYYw2cQEGLfJjtBbyS-4">
          <mxGeometry x="1126" y="103" width="50" height="50" as="geometry" />
        </mxCell>
        <mxCell id="i3d9WlMV_aPhnrJHNZd--36" value="Яка подія&amp;nbsp;&lt;br&gt;станеться швидше?" style="text;html=1;align=center;verticalAlign=middle;resizable=0;points=[];autosize=1;strokeColor=none;fillColor=none;" vertex="1" parent="XJhYYw2cQEGLfJjtBbyS-4">
          <mxGeometry x="1172" y="107.5" width="129" height="41" as="geometry" />
        </mxCell>
        <mxCell id="i3d9WlMV_aPhnrJHNZd--37" value="" style="points=[[0.145,0.145,0],[0.5,0,0],[0.855,0.145,0],[1,0.5,0],[0.855,0.855,0],[0.5,1,0],[0.145,0.855,0],[0,0.5,0]];shape=mxgraph.bpmn.event;html=1;verticalLabelPosition=bottom;labelBackgroundColor=#ffffff;verticalAlign=top;align=center;perimeter=ellipsePerimeter;outlineConnect=0;aspect=fixed;outline=standard;symbol=timer;" vertex="1" parent="XJhYYw2cQEGLfJjtBbyS-4">
          <mxGeometry x="1208.5" y="19" width="50" height="50" as="geometry" />
        </mxCell>
        <mxCell id="i3d9WlMV_aPhnrJHNZd--38" value="Пройшло понад два тижні" style="text;html=1;align=center;verticalAlign=middle;resizable=0;points=[];autosize=1;strokeColor=none;fillColor=none;" vertex="1" parent="XJhYYw2cQEGLfJjtBbyS-4">
          <mxGeometry x="1152" y="67.59" width="163" height="26" as="geometry" />
        </mxCell>
        <mxCell id="i3d9WlMV_aPhnrJHNZd--39" style="edgeStyle=orthogonalEdgeStyle;rounded=0;orthogonalLoop=1;jettySize=auto;html=1;exitX=0.5;exitY=0;exitDx=0;exitDy=0;exitPerimeter=0;entryX=0;entryY=0.5;entryDx=0;entryDy=0;entryPerimeter=0;" edge="1" parent="XJhYYw2cQEGLfJjtBbyS-4" source="i3d9WlMV_aPhnrJHNZd--34" target="i3d9WlMV_aPhnrJHNZd--37">
          <mxGeometry relative="1" as="geometry" />
        </mxCell>
        <mxCell id="i3d9WlMV_aPhnrJHNZd--40" value="" style="points=[[0.145,0.145,0],[0.5,0,0],[0.855,0.145,0],[1,0.5,0],[0.855,0.855,0],[0.5,1,0],[0.145,0.855,0],[0,0.5,0]];shape=mxgraph.bpmn.event;html=1;verticalLabelPosition=bottom;labelBackgroundColor=#ffffff;verticalAlign=top;align=center;perimeter=ellipsePerimeter;outlineConnect=0;aspect=fixed;outline=end;symbol=terminate2;" vertex="1" parent="XJhYYw2cQEGLfJjtBbyS-4">
          <mxGeometry x="1328" y="19" width="50" height="50" as="geometry" />
        </mxCell>
        <mxCell id="i3d9WlMV_aPhnrJHNZd--41" style="edgeStyle=orthogonalEdgeStyle;rounded=0;orthogonalLoop=1;jettySize=auto;html=1;exitX=1;exitY=0.5;exitDx=0;exitDy=0;exitPerimeter=0;entryX=0;entryY=0.5;entryDx=0;entryDy=0;entryPerimeter=0;" edge="1" parent="XJhYYw2cQEGLfJjtBbyS-4" source="i3d9WlMV_aPhnrJHNZd--37" target="i3d9WlMV_aPhnrJHNZd--40">
          <mxGeometry relative="1" as="geometry" />
        </mxCell>
        <mxCell id="i3d9WlMV_aPhnrJHNZd--42" style="edgeStyle=orthogonalEdgeStyle;rounded=0;orthogonalLoop=1;jettySize=auto;html=1;entryX=0;entryY=0.5;entryDx=0;entryDy=0;entryPerimeter=0;exitX=0.5;exitY=1;exitDx=0;exitDy=0;exitPerimeter=0;" edge="1" parent="XJhYYw2cQEGLfJjtBbyS-4" source="i3d9WlMV_aPhnrJHNZd--34" target="1G5EOY4C8jy5DTyf7jeD-55">
          <mxGeometry relative="1" as="geometry">
            <mxPoint x="1161" y="226" as="sourcePoint" />
          </mxGeometry>
        </mxCell>
        <mxCell id="1G5EOY4C8jy5DTyf7jeD-3" value="Відділ кадрів (HR)" style="swimlane;horizontal=0;whiteSpace=wrap;html=1;" parent="1" vertex="1">
          <mxGeometry x="-626" y="-186" width="1982" height="440" as="geometry" />
        </mxCell>
        <mxCell id="1G5EOY4C8jy5DTyf7jeD-12" value="Перевірити резюме" style="rounded=1;whiteSpace=wrap;html=1;" parent="1G5EOY4C8jy5DTyf7jeD-3" vertex="1">
          <mxGeometry x="290" y="190" width="120" height="60" as="geometry" />
        </mxCell>
        <mxCell id="1G5EOY4C8jy5DTyf7jeD-18" style="edgeStyle=orthogonalEdgeStyle;rounded=0;orthogonalLoop=1;jettySize=auto;html=1;entryX=0;entryY=0.5;entryDx=0;entryDy=0;exitX=0.5;exitY=0;exitDx=0;exitDy=0;exitPerimeter=0;" parent="1G5EOY4C8jy5DTyf7jeD-3" source="1G5EOY4C8jy5DTyf7jeD-14" target="1G5EOY4C8jy5DTyf7jeD-17" edge="1">
          <mxGeometry relative="1" as="geometry">
            <mxPoint x="566" y="279.00000000000006" as="targetPoint" />
          </mxGeometry>
        </mxCell>
        <mxCell id="1G5EOY4C8jy5DTyf7jeD-86" value="&lt;font style=&quot;font-size: 14px;&quot;&gt;Ні&lt;/font&gt;" style="edgeLabel;html=1;align=center;verticalAlign=middle;resizable=0;points=[];" parent="1G5EOY4C8jy5DTyf7jeD-18" vertex="1" connectable="0">
          <mxGeometry x="-0.2604" y="-3" relative="1" as="geometry">
            <mxPoint as="offset" />
          </mxGeometry>
        </mxCell>
        <mxCell id="i3d9WlMV_aPhnrJHNZd--16" style="edgeStyle=orthogonalEdgeStyle;rounded=0;orthogonalLoop=1;jettySize=auto;html=1;exitX=0.5;exitY=1;exitDx=0;exitDy=0;exitPerimeter=0;entryX=0;entryY=0.5;entryDx=0;entryDy=0;" edge="1" parent="1G5EOY4C8jy5DTyf7jeD-3" source="1G5EOY4C8jy5DTyf7jeD-14" target="1G5EOY4C8jy5DTyf7jeD-28">
          <mxGeometry relative="1" as="geometry" />
        </mxCell>
        <mxCell id="i3d9WlMV_aPhnrJHNZd--18" value="&lt;font style=&quot;font-size: 14px;&quot;&gt;Так&lt;/font&gt;" style="edgeLabel;html=1;align=center;verticalAlign=middle;resizable=0;points=[];" vertex="1" connectable="0" parent="i3d9WlMV_aPhnrJHNZd--16">
          <mxGeometry x="-0.4558" y="2" relative="1" as="geometry">
            <mxPoint as="offset" />
          </mxGeometry>
        </mxCell>
        <mxCell id="1G5EOY4C8jy5DTyf7jeD-14" value="" style="points=[[0.25,0.25,0],[0.5,0,0],[0.75,0.25,0],[1,0.5,0],[0.75,0.75,0],[0.5,1,0],[0.25,0.75,0],[0,0.5,0]];shape=mxgraph.bpmn.gateway2;html=1;verticalLabelPosition=bottom;labelBackgroundColor=#ffffff;verticalAlign=top;align=center;perimeter=rhombusPerimeter;outlineConnect=0;outline=none;symbol=none;gwType=exclusive;" parent="1G5EOY4C8jy5DTyf7jeD-3" vertex="1">
          <mxGeometry x="470" y="195" width="50" height="50" as="geometry" />
        </mxCell>
        <mxCell id="1G5EOY4C8jy5DTyf7jeD-17" value="Відхилити кандидатуру" style="rounded=1;whiteSpace=wrap;html=1;" parent="1G5EOY4C8jy5DTyf7jeD-3" vertex="1">
          <mxGeometry x="564" y="93" width="120" height="60" as="geometry" />
        </mxCell>
        <mxCell id="1G5EOY4C8jy5DTyf7jeD-27" value="Провести співбесіду" style="rounded=1;whiteSpace=wrap;html=1;" parent="1G5EOY4C8jy5DTyf7jeD-3" vertex="1">
          <mxGeometry x="1032" y="292.00000000000006" width="120" height="60" as="geometry" />
        </mxCell>
        <mxCell id="1G5EOY4C8jy5DTyf7jeD-28" value="Надіслати тестове завдання" style="rounded=1;whiteSpace=wrap;html=1;" parent="1G5EOY4C8jy5DTyf7jeD-3" vertex="1">
          <mxGeometry x="564" y="292.00000000000006" width="120" height="60" as="geometry" />
        </mxCell>
        <mxCell id="1G5EOY4C8jy5DTyf7jeD-85" value="Резюме влаштовує?" style="text;html=1;align=center;verticalAlign=middle;resizable=0;points=[];autosize=1;strokeColor=none;fillColor=none;" parent="1G5EOY4C8jy5DTyf7jeD-3" vertex="1">
          <mxGeometry x="520" y="206" width="131" height="26" as="geometry" />
        </mxCell>
        <mxCell id="i3d9WlMV_aPhnrJHNZd--5" style="edgeStyle=orthogonalEdgeStyle;rounded=0;orthogonalLoop=1;jettySize=auto;html=1;exitX=0.5;exitY=0;exitDx=0;exitDy=0;exitPerimeter=0;entryX=0.75;entryY=1;entryDx=0;entryDy=0;dashed=1;" edge="1" parent="1G5EOY4C8jy5DTyf7jeD-3" source="1G5EOY4C8jy5DTyf7jeD-16" target="1G5EOY4C8jy5DTyf7jeD-12">
          <mxGeometry relative="1" as="geometry" />
        </mxCell>
        <mxCell id="1G5EOY4C8jy5DTyf7jeD-16" value="" style="shape=mxgraph.bpmn.data;labelPosition=center;verticalLabelPosition=bottom;align=center;verticalAlign=top;size=15;html=1;" parent="1G5EOY4C8jy5DTyf7jeD-3" vertex="1">
          <mxGeometry x="346" y="327" width="67" height="91" as="geometry" />
        </mxCell>
        <mxCell id="1G5EOY4C8jy5DTyf7jeD-70" value="Резюме" style="text;html=1;align=center;verticalAlign=middle;resizable=0;points=[];autosize=1;strokeColor=none;fillColor=none;" parent="1G5EOY4C8jy5DTyf7jeD-3" vertex="1">
          <mxGeometry x="349" y="367.5" width="61" height="26" as="geometry" />
        </mxCell>
        <mxCell id="i3d9WlMV_aPhnrJHNZd--8" style="edgeStyle=orthogonalEdgeStyle;rounded=0;orthogonalLoop=1;jettySize=auto;html=1;exitX=1;exitY=0.5;exitDx=0;exitDy=0;entryX=0;entryY=0.5;entryDx=0;entryDy=0;entryPerimeter=0;" edge="1" parent="1G5EOY4C8jy5DTyf7jeD-3" source="1G5EOY4C8jy5DTyf7jeD-12" target="1G5EOY4C8jy5DTyf7jeD-14">
          <mxGeometry relative="1" as="geometry" />
        </mxCell>
        <mxCell id="i3d9WlMV_aPhnrJHNZd--9" value="" style="points=[[0.145,0.145,0],[0.5,0,0],[0.855,0.145,0],[1,0.5,0],[0.855,0.855,0],[0.5,1,0],[0.145,0.855,0],[0,0.5,0]];shape=mxgraph.bpmn.event;html=1;verticalLabelPosition=bottom;labelBackgroundColor=#ffffff;verticalAlign=top;align=center;perimeter=ellipsePerimeter;outlineConnect=0;aspect=fixed;outline=end;symbol=terminate2;" vertex="1" parent="1G5EOY4C8jy5DTyf7jeD-3">
          <mxGeometry x="748" y="98" width="50" height="50" as="geometry" />
        </mxCell>
        <mxCell id="i3d9WlMV_aPhnrJHNZd--10" style="edgeStyle=orthogonalEdgeStyle;rounded=0;orthogonalLoop=1;jettySize=auto;html=1;exitX=1;exitY=0.5;exitDx=0;exitDy=0;entryX=0;entryY=0.5;entryDx=0;entryDy=0;entryPerimeter=0;" edge="1" parent="1G5EOY4C8jy5DTyf7jeD-3" source="1G5EOY4C8jy5DTyf7jeD-17" target="i3d9WlMV_aPhnrJHNZd--9">
          <mxGeometry relative="1" as="geometry" />
        </mxCell>
        <mxCell id="i3d9WlMV_aPhnrJHNZd--23" value="Перевірити виконане завдання" style="rounded=1;whiteSpace=wrap;html=1;" vertex="1" parent="1G5EOY4C8jy5DTyf7jeD-3">
          <mxGeometry x="739" y="190" width="120" height="60" as="geometry" />
        </mxCell>
        <mxCell id="i3d9WlMV_aPhnrJHNZd--26" style="edgeStyle=orthogonalEdgeStyle;rounded=0;orthogonalLoop=1;jettySize=auto;html=1;exitX=0.5;exitY=0;exitDx=0;exitDy=0;exitPerimeter=0;entryX=0.75;entryY=1;entryDx=0;entryDy=0;dashed=1;" edge="1" parent="1G5EOY4C8jy5DTyf7jeD-3" source="1G5EOY4C8jy5DTyf7jeD-82" target="i3d9WlMV_aPhnrJHNZd--23">
          <mxGeometry relative="1" as="geometry" />
        </mxCell>
        <mxCell id="1G5EOY4C8jy5DTyf7jeD-82" value="" style="shape=mxgraph.bpmn.data;labelPosition=center;verticalLabelPosition=bottom;align=center;verticalAlign=top;size=15;html=1;" parent="1G5EOY4C8jy5DTyf7jeD-3" vertex="1">
          <mxGeometry x="796" y="309" width="67" height="91" as="geometry" />
        </mxCell>
        <mxCell id="1G5EOY4C8jy5DTyf7jeD-83" value="Виконане&lt;br&gt;завдання" style="text;html=1;align=center;verticalAlign=middle;resizable=0;points=[];autosize=1;strokeColor=none;fillColor=none;" parent="1G5EOY4C8jy5DTyf7jeD-3" vertex="1">
          <mxGeometry x="794" y="334" width="71" height="41" as="geometry" />
        </mxCell>
        <mxCell id="i3d9WlMV_aPhnrJHNZd--30" style="edgeStyle=orthogonalEdgeStyle;rounded=0;orthogonalLoop=1;jettySize=auto;html=1;exitX=0.5;exitY=0;exitDx=0;exitDy=0;exitPerimeter=0;entryX=0.5;entryY=0;entryDx=0;entryDy=0;" edge="1" parent="1G5EOY4C8jy5DTyf7jeD-3" source="i3d9WlMV_aPhnrJHNZd--27" target="1G5EOY4C8jy5DTyf7jeD-17">
          <mxGeometry relative="1" as="geometry" />
        </mxCell>
        <mxCell id="i3d9WlMV_aPhnrJHNZd--31" value="&lt;font style=&quot;font-size: 14px;&quot;&gt;Ні&lt;/font&gt;" style="edgeLabel;html=1;align=center;verticalAlign=middle;resizable=0;points=[];" vertex="1" connectable="0" parent="i3d9WlMV_aPhnrJHNZd--30">
          <mxGeometry x="-0.8089" y="-1" relative="1" as="geometry">
            <mxPoint as="offset" />
          </mxGeometry>
        </mxCell>
        <mxCell id="i3d9WlMV_aPhnrJHNZd--32" style="edgeStyle=orthogonalEdgeStyle;rounded=0;orthogonalLoop=1;jettySize=auto;html=1;exitX=0.5;exitY=1;exitDx=0;exitDy=0;exitPerimeter=0;entryX=0;entryY=0.5;entryDx=0;entryDy=0;" edge="1" parent="1G5EOY4C8jy5DTyf7jeD-3" source="i3d9WlMV_aPhnrJHNZd--27" target="1G5EOY4C8jy5DTyf7jeD-27">
          <mxGeometry relative="1" as="geometry" />
        </mxCell>
        <mxCell id="i3d9WlMV_aPhnrJHNZd--33" value="&lt;font style=&quot;font-size: 14px;&quot;&gt;Так&lt;/font&gt;" style="edgeLabel;html=1;align=center;verticalAlign=middle;resizable=0;points=[];" vertex="1" connectable="0" parent="i3d9WlMV_aPhnrJHNZd--32">
          <mxGeometry x="-0.6398" y="-2" relative="1" as="geometry">
            <mxPoint as="offset" />
          </mxGeometry>
        </mxCell>
        <mxCell id="i3d9WlMV_aPhnrJHNZd--27" value="" style="points=[[0.25,0.25,0],[0.5,0,0],[0.75,0.25,0],[1,0.5,0],[0.75,0.75,0],[0.5,1,0],[0.25,0.75,0],[0,0.5,0]];shape=mxgraph.bpmn.gateway2;html=1;verticalLabelPosition=bottom;labelBackgroundColor=#ffffff;verticalAlign=top;align=center;perimeter=rhombusPerimeter;outlineConnect=0;outline=none;symbol=none;gwType=exclusive;" vertex="1" parent="1G5EOY4C8jy5DTyf7jeD-3">
          <mxGeometry x="941" y="194" width="50" height="50" as="geometry" />
        </mxCell>
        <mxCell id="i3d9WlMV_aPhnrJHNZd--28" style="edgeStyle=orthogonalEdgeStyle;rounded=0;orthogonalLoop=1;jettySize=auto;html=1;exitX=1;exitY=0.5;exitDx=0;exitDy=0;entryX=0;entryY=0.5;entryDx=0;entryDy=0;entryPerimeter=0;" edge="1" parent="1G5EOY4C8jy5DTyf7jeD-3" source="i3d9WlMV_aPhnrJHNZd--23" target="i3d9WlMV_aPhnrJHNZd--27">
          <mxGeometry relative="1" as="geometry" />
        </mxCell>
        <mxCell id="i3d9WlMV_aPhnrJHNZd--29" value="Завдання виконано&amp;nbsp;&lt;br&gt;задовільно?" style="text;html=1;align=center;verticalAlign=middle;resizable=0;points=[];autosize=1;strokeColor=none;fillColor=none;" vertex="1" parent="1G5EOY4C8jy5DTyf7jeD-3">
          <mxGeometry x="985" y="198.5" width="130" height="41" as="geometry" />
        </mxCell>
        <mxCell id="1G5EOY4C8jy5DTyf7jeD-105" value="" style="shape=mxgraph.bpmn.data;labelPosition=center;verticalLabelPosition=bottom;align=center;verticalAlign=top;size=15;html=1;" parent="1G5EOY4C8jy5DTyf7jeD-3" vertex="1">
          <mxGeometry x="1546.5" y="327" width="67" height="91" as="geometry" />
        </mxCell>
        <mxCell id="1G5EOY4C8jy5DTyf7jeD-106" value="Документи" style="text;html=1;align=center;verticalAlign=middle;resizable=0;points=[];autosize=1;strokeColor=none;fillColor=none;" parent="1G5EOY4C8jy5DTyf7jeD-3" vertex="1">
          <mxGeometry x="1541" y="365" width="78" height="26" as="geometry" />
        </mxCell>
        <mxCell id="1G5EOY4C8jy5DTyf7jeD-60" value="Прийняти кандидата на роботу" style="rounded=1;whiteSpace=wrap;html=1;" parent="1G5EOY4C8jy5DTyf7jeD-3" vertex="1">
          <mxGeometry x="1490.5" y="190" width="120" height="60" as="geometry" />
        </mxCell>
        <mxCell id="O-BT7OIUedMXm94LAa7s-9" value="" style="points=[[0.145,0.145,0],[0.5,0,0],[0.855,0.145,0],[1,0.5,0],[0.855,0.855,0],[0.5,1,0],[0.145,0.855,0],[0,0.5,0]];shape=mxgraph.bpmn.event;html=1;verticalLabelPosition=bottom;labelBackgroundColor=#ffffff;verticalAlign=top;align=center;perimeter=ellipsePerimeter;outlineConnect=0;aspect=fixed;outline=end;symbol=terminate2;" parent="1G5EOY4C8jy5DTyf7jeD-3" vertex="1">
          <mxGeometry x="1687.5" y="195.00000000000003" width="50" height="50" as="geometry" />
        </mxCell>
        <mxCell id="i3d9WlMV_aPhnrJHNZd--48" style="edgeStyle=orthogonalEdgeStyle;rounded=0;orthogonalLoop=1;jettySize=auto;html=1;exitX=0.5;exitY=0;exitDx=0;exitDy=0;exitPerimeter=0;entryX=0.75;entryY=1;entryDx=0;entryDy=0;dashed=1;" edge="1" parent="1G5EOY4C8jy5DTyf7jeD-3" source="1G5EOY4C8jy5DTyf7jeD-105" target="1G5EOY4C8jy5DTyf7jeD-60">
          <mxGeometry relative="1" as="geometry" />
        </mxCell>
        <mxCell id="O-BT7OIUedMXm94LAa7s-8" style="edgeStyle=orthogonalEdgeStyle;rounded=0;orthogonalLoop=1;jettySize=auto;html=1;exitX=1;exitY=0.5;exitDx=0;exitDy=0;entryX=0;entryY=0.5;entryDx=0;entryDy=0;entryPerimeter=0;" parent="1G5EOY4C8jy5DTyf7jeD-3" source="1G5EOY4C8jy5DTyf7jeD-60" target="O-BT7OIUedMXm94LAa7s-9" edge="1">
          <mxGeometry relative="1" as="geometry">
            <mxPoint x="1768.5" y="114" as="targetPoint" />
          </mxGeometry>
        </mxCell>
        <mxCell id="i3d9WlMV_aPhnrJHNZd--4" style="edgeStyle=orthogonalEdgeStyle;rounded=0;orthogonalLoop=1;jettySize=auto;html=1;exitX=0.75;exitY=0;exitDx=0;exitDy=0;entryX=0.5;entryY=1;entryDx=0;entryDy=0;entryPerimeter=0;dashed=1;" edge="1" parent="1" source="1G5EOY4C8jy5DTyf7jeD-5" target="1G5EOY4C8jy5DTyf7jeD-16">
          <mxGeometry relative="1" as="geometry" />
        </mxCell>
        <mxCell id="i3d9WlMV_aPhnrJHNZd--6" style="edgeStyle=orthogonalEdgeStyle;rounded=0;orthogonalLoop=1;jettySize=auto;html=1;exitX=0.25;exitY=0;exitDx=0;exitDy=0;entryX=0.25;entryY=1;entryDx=0;entryDy=0;" edge="1" parent="1" source="1G5EOY4C8jy5DTyf7jeD-5" target="1G5EOY4C8jy5DTyf7jeD-12">
          <mxGeometry relative="1" as="geometry" />
        </mxCell>
        <mxCell id="i3d9WlMV_aPhnrJHNZd--20" style="edgeStyle=orthogonalEdgeStyle;rounded=0;orthogonalLoop=1;jettySize=auto;html=1;exitX=0.25;exitY=1;exitDx=0;exitDy=0;entryX=0.5;entryY=0;entryDx=0;entryDy=0;entryPerimeter=0;dashed=1;" edge="1" parent="1" source="1G5EOY4C8jy5DTyf7jeD-28" target="1G5EOY4C8jy5DTyf7jeD-79">
          <mxGeometry relative="1" as="geometry" />
        </mxCell>
        <mxCell id="i3d9WlMV_aPhnrJHNZd--21" style="edgeStyle=orthogonalEdgeStyle;rounded=0;orthogonalLoop=1;jettySize=auto;html=1;exitX=0.75;exitY=1;exitDx=0;exitDy=0;entryX=0.855;entryY=0.145;entryDx=0;entryDy=0;entryPerimeter=0;" edge="1" parent="1" source="1G5EOY4C8jy5DTyf7jeD-28" target="1G5EOY4C8jy5DTyf7jeD-45">
          <mxGeometry relative="1" as="geometry" />
        </mxCell>
        <mxCell id="i3d9WlMV_aPhnrJHNZd--24" style="edgeStyle=orthogonalEdgeStyle;rounded=0;orthogonalLoop=1;jettySize=auto;html=1;exitX=0.25;exitY=0;exitDx=0;exitDy=0;entryX=0.25;entryY=1;entryDx=0;entryDy=0;" edge="1" parent="1" source="1G5EOY4C8jy5DTyf7jeD-29" target="i3d9WlMV_aPhnrJHNZd--23">
          <mxGeometry relative="1" as="geometry" />
        </mxCell>
        <mxCell id="i3d9WlMV_aPhnrJHNZd--25" style="edgeStyle=orthogonalEdgeStyle;rounded=0;orthogonalLoop=1;jettySize=auto;html=1;exitX=0.75;exitY=0;exitDx=0;exitDy=0;entryX=0.5;entryY=1;entryDx=0;entryDy=0;entryPerimeter=0;dashed=1;" edge="1" parent="1" source="1G5EOY4C8jy5DTyf7jeD-29" target="1G5EOY4C8jy5DTyf7jeD-82">
          <mxGeometry relative="1" as="geometry" />
        </mxCell>
        <mxCell id="i3d9WlMV_aPhnrJHNZd--35" style="edgeStyle=orthogonalEdgeStyle;rounded=0;orthogonalLoop=1;jettySize=auto;html=1;exitX=0.5;exitY=1;exitDx=0;exitDy=0;entryX=0;entryY=0.5;entryDx=0;entryDy=0;entryPerimeter=0;" edge="1" parent="1" source="1G5EOY4C8jy5DTyf7jeD-27" target="i3d9WlMV_aPhnrJHNZd--34">
          <mxGeometry relative="1" as="geometry" />
        </mxCell>
        <mxCell id="i3d9WlMV_aPhnrJHNZd--47" style="edgeStyle=orthogonalEdgeStyle;rounded=0;orthogonalLoop=1;jettySize=auto;html=1;exitX=0.75;exitY=0;exitDx=0;exitDy=0;entryX=0.5;entryY=1;entryDx=0;entryDy=0;entryPerimeter=0;dashed=1;" edge="1" parent="1" source="1G5EOY4C8jy5DTyf7jeD-65" target="1G5EOY4C8jy5DTyf7jeD-105">
          <mxGeometry relative="1" as="geometry" />
        </mxCell>
        <mxCell id="i3d9WlMV_aPhnrJHNZd--46" style="edgeStyle=orthogonalEdgeStyle;rounded=0;orthogonalLoop=1;jettySize=auto;html=1;exitX=0.25;exitY=0;exitDx=0;exitDy=0;entryX=0.25;entryY=1;entryDx=0;entryDy=0;" edge="1" parent="1" source="1G5EOY4C8jy5DTyf7jeD-65" target="1G5EOY4C8jy5DTyf7jeD-60">
          <mxGeometry relative="1" as="geometry" />
        </mxCell>
      </root>
    </mxGraphModel>
  </diagram>
</mxfile>
